<svg width="22" height="22" viewBox="0 0 22 22" fill="none" xmlns="http://www.w3.org/2000/svg">
<defs>
<radialGradient id="paint0_radial" cx="0" cy="0" r="1" gradientUnits="userSpaceOnUse" gradientTransform="translate(-0.6463) rotate(51.0436) scale(31.7694 16.0157)">
<stop offset="0.199651" stop-color="#3BAB63"/>
<stop offset="1" stop-color="#218043"/>
</radialGradient>
</defs>
<path d="M17.6914 13.5664C17.2904 13.5234 16.8822 13.459 16.4668 13.373C16.0658 13.2728 15.679 13.1582 15.3066 13.0293C14.8053 12.8431 14.2969 12.8145 13.7812 12.9434C13.2656 13.0579 12.8001 13.3014 12.3848 13.6738L11.7402 14.3184C10.9095 13.7598 10.1361 13.1367 9.41992 12.4492C8.70378 11.7474 8.07357 10.9596 7.5293 10.0859L8.17383 9.44141C8.5319 9.08333 8.76823 8.63216 8.88281 8.08789C9.01172 7.54362 8.99023 7.02083 8.81836 6.51953C8.67513 6.14714 8.55339 5.76042 8.45312 5.35938C8.36719 4.95833 8.30273 4.55013 8.25977 4.13477C8.17383 3.44727 7.86589 2.88151 7.33594 2.4375C6.80599 1.97917 6.19727 1.75 5.50977 1.75H2.75977C2.7168 1.75 2.66667 1.75 2.60938 1.75C2.56641 1.75 2.52344 1.75 2.48047 1.75C2.1224 1.79297 1.78581 1.90755 1.4707 2.09375C1.1556 2.26562 0.883464 2.48763 0.654297 2.75977C0.42513 3.0319 0.260417 3.34701 0.160156 3.70508C0.0598958 4.04883 0.00976562 4.4069 0.00976562 4.7793C0.0813802 5.50977 0.195964 6.24023 0.353516 6.9707C0.525391 7.70117 0.733073 8.41732 0.976562 9.11914C1.23438 9.82096 1.52799 10.5085 1.85742 11.1816C2.18685 11.8548 2.54492 12.4993 2.93164 13.1152C3.30404 13.6882 3.70508 14.2396 4.13477 14.7695C4.56445 15.3138 5.02279 15.8294 5.50977 16.3164C5.99674 16.8034 6.51237 17.2617 7.05664 17.6914C7.58659 18.1211 8.13802 18.5221 8.71094 18.8945C9.32682 19.3099 9.97135 19.6823 10.6445 20.0117C11.3177 20.3411 12.0052 20.6276 12.707 20.8711C13.4232 21.1146 14.1393 21.3151 14.8555 21.4727C15.5859 21.6445 16.3236 21.7591 17.0684 21.8164C17.1113 21.8164 17.1543 21.8164 17.1973 21.8164C17.2402 21.8164 17.2832 21.8164 17.3262 21.8164C17.6986 21.8164 18.0566 21.7448 18.4004 21.6016C18.7441 21.4727 19.0306 21.2721 19.2598 21C19.4889 20.7279 19.6823 20.4342 19.8398 20.1191C19.9974 19.7897 20.0762 19.4388 20.0762 19.0664V16.3164C20.0762 15.6289 19.847 15.0273 19.3887 14.5117C18.9447 13.9818 18.3789 13.6667 17.6914 13.5664ZM18.25 16.3164V19.0664C18.25 19.2096 18.2285 19.3314 18.1855 19.4316C18.1426 19.5319 18.071 19.625 17.9707 19.7109C17.8848 19.8112 17.7845 19.8828 17.6699 19.9258C17.5697 19.9688 17.4264 19.9902 17.2402 19.9902C16.5814 19.9186 15.9225 19.8112 15.2637 19.668C14.6191 19.5247 13.9818 19.3385 13.3516 19.1094C12.7214 18.8802 12.0983 18.6224 11.4824 18.3359C10.8809 18.0352 10.2936 17.6986 9.7207 17.3262C9.19076 17.0111 8.68945 16.6602 8.2168 16.2734C7.72982 15.8867 7.26432 15.4714 6.82031 15.0273C6.39062 14.5833 5.98242 14.1178 5.5957 13.6309C5.20898 13.1439 4.84375 12.6354 4.5 12.1055C4.1276 11.5326 3.79818 10.9453 3.51172 10.3438C3.21094 9.74219 2.94596 9.1263 2.7168 8.49609C2.50195 7.86589 2.31576 7.22135 2.1582 6.5625C2.01497 5.91797 1.90755 5.25911 1.83594 4.58594C1.83594 4.45703 1.85742 4.34245 1.90039 4.24219C1.94336 4.14193 1.98633 4.04167 2.0293 3.94141C2.11523 3.85547 2.22266 3.77669 2.35156 3.70508C2.48047 3.61914 2.61654 3.57617 2.75977 3.57617H5.50977C5.73893 3.57617 5.93229 3.66211 6.08984 3.83398C6.26172 3.99154 6.3763 4.1849 6.43359 4.41406C6.47656 4.8724 6.5625 5.34505 6.69141 5.83203C6.82031 6.30469 6.97786 6.7487 7.16406 7.16406C7.20703 7.35026 7.20703 7.5293 7.16406 7.70117C7.13542 7.87305 7.07096 8.0306 6.9707 8.17383L5.78906 9.26953C5.64583 9.39844 5.55273 9.57031 5.50977 9.78516C5.48112 9.98568 5.50977 10.179 5.5957 10.3652C5.93945 10.9811 6.32617 11.5684 6.75586 12.127C7.17122 12.6855 7.6224 13.2155 8.10938 13.7168C8.61068 14.2038 9.14062 14.6621 9.69922 15.0918C10.2578 15.5072 10.8451 15.8867 11.4609 16.2305C11.6471 16.3307 11.8405 16.3737 12.041 16.3594C12.2559 16.3307 12.4277 16.2305 12.5566 16.0586L13.7598 14.8555C13.903 14.7266 14.0605 14.6406 14.2324 14.5977C14.4043 14.5547 14.5833 14.5833 14.7695 14.6836C15.2279 14.8555 15.6862 14.9987 16.1445 15.1133C16.6029 15.2135 17.0612 15.3138 17.5195 15.4141C17.7057 15.457 17.8704 15.5645 18.0137 15.7363C18.1712 15.8939 18.25 16.0872 18.25 16.3164ZM12.9434 0.826172C12.7142 0.783203 12.4993 0.847656 12.2988 1.01953C12.0983 1.17708 11.9766 1.39193 11.9336 1.66406C11.8763 1.89323 11.9264 2.10807 12.084 2.30859C12.2559 2.49479 12.4779 2.61654 12.75 2.67383C13.5951 2.75977 14.39 2.98177 15.1348 3.33984C15.8796 3.71224 16.5384 4.1849 17.1113 4.75781C17.6842 5.33073 18.1569 5.98958 18.5293 6.73438C18.9017 7.49349 19.1452 8.3099 19.2598 9.18359C19.3027 9.41276 19.4102 9.60612 19.582 9.76367C19.7539 9.92122 19.9544 10 20.1836 10C20.1836 10 20.1979 10 20.2266 10C20.2552 10 20.2695 10 20.2695 10C20.4987 9.95703 20.6921 9.83529 20.8496 9.63477C21.0072 9.43424 21.0859 9.2194 21.0859 8.99023C20.957 7.91602 20.6562 6.90625 20.1836 5.96094C19.7109 5.01562 19.1094 4.1849 18.3789 3.46875C17.6628 2.7526 16.8392 2.1582 15.9082 1.68555C14.9772 1.22721 13.9889 0.940755 12.9434 0.826172ZM15.5 9.18359C15.543 9.41276 15.6504 9.5918 15.8223 9.7207C15.9941 9.84961 16.1947 9.91406 16.4238 9.91406C16.4668 9.91406 16.4954 9.91406 16.5098 9.91406C16.5241 9.91406 16.5527 9.91406 16.5957 9.91406C16.8249 9.87109 17.0182 9.74935 17.1758 9.54883C17.3333 9.33398 17.3835 9.09049 17.3262 8.81836C17.097 7.71549 16.5957 6.77018 15.8223 5.98242C15.0632 5.18034 14.1322 4.6862 13.0293 4.5C12.8001 4.45703 12.571 4.5 12.3418 4.62891C12.1126 4.75781 11.9766 4.95833 11.9336 5.23047C11.8763 5.5026 11.9121 5.74609 12.041 5.96094C12.1842 6.16146 12.3919 6.2832 12.6641 6.32617C13.3945 6.4694 14.0104 6.79883 14.5117 7.31445C15.0273 7.81576 15.3568 8.4388 15.5 9.18359Z" fill="url(#paint0_radial)"/>
</svg>
