<svg width="22" height="21" viewBox="0 0 22 21" fill="none" xmlns="http://www.w3.org/2000/svg">
<defs>
<radialGradient id="paint0_radial" cx="0" cy="0" r="1" gradientUnits="userSpaceOnUse" gradientTransform="translate(0.3537 -1.00001) rotate(51.0436) scale(31.7694 16.0157)">
<stop offset="0.199651" stop-color="#3BAB63"/>
<stop offset="1" stop-color="#218043"/>
</radialGradient>
</defs>
<path d="M11 0.75C9.59635 0.75 8.28581 1.01497 7.06836 1.54492C5.83659 2.06055 4.76237 2.77669 3.8457 3.69336C2.94336 4.61003 2.22721 5.67708 1.69727 6.89453C1.18164 8.1263 0.923828 9.43685 0.923828 10.8262C0.923828 12.2298 1.18164 13.5404 1.69727 14.7578C2.22721 15.9896 2.94336 17.0638 3.8457 17.9805C4.76237 18.8828 5.83659 19.599 7.06836 20.1289C8.28581 20.6589 9.59635 20.9238 11 20.9238C12.4036 20.9238 13.7142 20.6589 14.9316 20.1289C16.1634 19.599 17.2305 18.8828 18.1328 17.9805C19.0495 17.0638 19.7728 15.9896 20.3027 14.7578C20.8184 13.5404 21.0762 12.2298 21.0762 10.8262C21.0762 9.43685 20.8184 8.1263 20.3027 6.89453C19.7728 5.67708 19.0495 4.61003 18.1328 3.69336C17.2305 2.77669 16.1634 2.06055 14.9316 1.54492C13.7142 1.01497 12.4036 0.75 11 0.75ZM11 19.0762C9.85417 19.0762 8.77995 18.8613 7.77734 18.4316C6.77474 18.002 5.90104 17.4147 5.15625 16.6699C4.41146 15.9251 3.82422 15.0514 3.39453 14.0488C2.96484 13.0462 2.75 11.972 2.75 10.8262C2.75 9.68034 2.96484 8.60612 3.39453 7.60352C3.82422 6.60091 4.41146 5.72721 5.15625 4.98242C5.90104 4.23763 6.77474 3.65039 7.77734 3.2207C8.77995 2.79102 9.85417 2.57617 11 2.57617C12.1458 2.57617 13.2201 2.79102 14.2227 3.2207C15.2253 3.65039 16.099 4.23763 16.8438 4.98242C17.5885 5.72721 18.1758 6.60091 18.6055 7.60352C19.0352 8.60612 19.25 9.68034 19.25 10.8262C19.25 11.972 19.0352 13.0462 18.6055 14.0488C18.1758 15.0514 17.5885 15.9251 16.8438 16.6699C16.099 17.4147 15.2253 18.002 14.2227 18.4316C13.2201 18.8613 12.1458 19.0762 11 19.0762ZM12.0957 5.51953C11.1361 5.1901 10.1979 5.2474 9.28125 5.69141C8.36458 6.12109 7.7487 6.79427 7.43359 7.71094C7.3763 7.98307 7.39779 8.24089 7.49805 8.48438C7.59831 8.72786 7.78451 8.87109 8.05664 8.91406C8.28581 9 8.52214 8.98568 8.76562 8.87109C9.00911 8.75651 9.17383 8.58464 9.25977 8.35547C9.44596 7.89714 9.76107 7.55339 10.2051 7.32422C10.6634 7.09505 11.1432 7.07357 11.6445 7.25977C12.0026 7.40299 12.2891 7.625 12.5039 7.92578C12.7188 8.22656 12.8262 8.58464 12.8262 9C12.8262 9.45833 12.5397 9.85938 11.9668 10.2031C11.4082 10.5469 10.9928 10.7904 10.7207 10.9336C10.4915 11.0195 10.3197 11.1699 10.2051 11.3848C10.0905 11.5996 10.0833 11.8431 10.1836 12.1152C10.2266 12.3014 10.3268 12.459 10.4844 12.5879C10.6419 12.7025 10.8138 12.7598 11 12.7598C11.043 12.7598 11.0859 12.7598 11.1289 12.7598C11.1862 12.7454 11.2363 12.7168 11.2793 12.6738C11.3652 12.6452 11.5944 12.5521 11.9668 12.3945C12.3249 12.2513 12.7044 12.0365 13.1055 11.75C13.5065 11.4492 13.8646 11.0768 14.1797 10.6328C14.5091 10.2031 14.6738 9.6875 14.6738 9.08594C14.6165 8.26953 14.3516 7.53906 13.8789 6.89453C13.4206 6.25 12.8262 5.79167 12.0957 5.51953ZM10.3555 14.7793C10.2695 14.8652 10.1979 14.9583 10.1406 15.0586C10.0977 15.1589 10.0762 15.2806 10.0762 15.4238C10.0762 15.5527 10.0977 15.6673 10.1406 15.7676C10.1979 15.8678 10.2695 15.9681 10.3555 16.0684C10.4557 16.1543 10.5488 16.2188 10.6348 16.2617C10.735 16.3047 10.8568 16.3262 11 16.3262C11.1432 16.3262 11.2578 16.3047 11.3438 16.2617C11.444 16.2188 11.5443 16.1543 11.6445 16.0684C11.7305 15.9681 11.7949 15.8607 11.8379 15.7461C11.8952 15.6172 11.9238 15.5098 11.9238 15.4238C11.9238 15.3236 11.8952 15.2161 11.8379 15.1016C11.7949 14.9727 11.7305 14.8652 11.6445 14.7793C11.4583 14.5931 11.2435 14.5 11 14.5C10.7565 14.5 10.5417 14.5931 10.3555 14.7793Z" fill="url(#paint0_radial)"/>
</svg>
