<svg width="25" height="20" viewBox="0 0 25 20" fill="none" xmlns="http://www.w3.org/2000/svg">
    <defs>
        <radialGradient id="paint0_radial" cx="0" cy="0" r="1" gradientUnits="userSpaceOnUse"
            gradientTransform="translate(1.36978 -2.00001) rotate(51.0436) scale(33.2134 16.7437)">
            <stop offset="0.199651" stop-color="#3BAB63" />
            <stop offset="1" stop-color="#218043" />
        </radialGradient>
    </defs>
    <path
        d="M23.7754 7.28711C23.7005 7.18229 23.6032 7.10742 23.4834 7.0625C23.3636 7.0026 23.2363 6.97266 23.1016 6.97266H22.3828V3.55859C22.3828 3.30404 22.293 3.0944 22.1133 2.92969C21.9486 2.75 21.7389 2.66016 21.4844 2.66016H10.5234V1.04297C10.5234 0.788411 10.4336 0.578776 10.2539 0.414062C10.0892 0.234375 9.87956 0.144531 9.625 0.144531H3.51562C3.26107 0.144531 3.04395 0.234375 2.86426 0.414062C2.69954 0.578776 2.61719 0.788411 2.61719 1.04297V6.97266H1.89844C1.76367 6.97266 1.63639 7.0026 1.5166 7.0625C1.39681 7.10742 1.29948 7.18229 1.22461 7.28711C1.13477 7.37695 1.06738 7.48926 1.02246 7.62402C0.992513 7.74382 0.985026 7.87109 1 8.00586L2.61719 18.9668C2.66211 19.1914 2.76693 19.3786 2.93164 19.5283C3.09635 19.6631 3.29102 19.7305 3.51562 19.7305H21.4844C21.709 19.7305 21.9036 19.6631 22.0684 19.5283C22.2331 19.3786 22.3379 19.1914 22.3828 18.9668L24 8.00586C24.015 7.87109 24 7.74382 23.9551 7.62402C23.9251 7.48926 23.8652 7.37695 23.7754 7.28711ZM4.41406 1.94141H8.72656V3.55859C8.72656 3.81315 8.80892 4.03027 8.97363 4.20996C9.15332 4.37467 9.37044 4.45703 9.625 4.45703H20.5859V6.97266H4.41406V1.94141ZM20.6982 17.9336H4.30176L2.93164 8.76953C3.05143 8.76953 4.1071 8.76953 6.09863 8.76953C8.10514 8.76953 10.2839 8.76953 12.6348 8.76953C14.9857 8.76953 17.1419 8.76953 19.1035 8.76953C21.0501 8.76953 22.0384 8.76953 22.0684 8.76953L20.6982 17.9336Z"
        fill="url(#paint0_radial)" />
</svg>
