<svg width="20" height="19" viewBox="0 0 20 19" fill="none" xmlns="http://www.w3.org/2000/svg">
<defs>
<radialGradient id="paint0_radial" cx="0" cy="0" r="1" gradientUnits="userSpaceOnUse" gradientTransform="translate(-0.6463 -2.00001) rotate(51.0436) scale(31.7694 16.0157)">
<stop offset="0.199651" stop-color="#3BAB63"/>
<stop offset="1" stop-color="#218043"/>
</radialGradient>
</defs>
<path d="M7.25 17.1738H3.57617C3.30404 17.1738 3.08203 17.0879 2.91016 16.916C2.7526 16.7441 2.67383 16.5221 2.67383 16.25V3.42383C2.67383 3.13737 2.7526 2.91536 2.91016 2.75781C3.08203 2.58594 3.30404 2.5 3.57617 2.5H7.25C7.52214 2.5 7.74414 2.42122 7.91602 2.26367C8.08789 2.0918 8.17383 1.86263 8.17383 1.57617C8.17383 1.30404 8.08789 1.08919 7.91602 0.931641C7.74414 0.759766 7.52214 0.673828 7.25 0.673828H3.57617C2.80273 0.673828 2.15104 0.938802 1.62109 1.46875C1.09115 1.98438 0.826172 2.63607 0.826172 3.42383V16.25C0.826172 17.0234 1.09115 17.6751 1.62109 18.2051C2.15104 18.735 2.80273 19 3.57617 19H7.25C7.52214 19 7.74414 18.9212 7.91602 18.7637C8.08789 18.5918 8.17383 18.3626 8.17383 18.0762C8.17383 17.804 8.08789 17.5892 7.91602 17.4316C7.74414 17.2598 7.52214 17.1738 7.25 17.1738ZM19.0664 10.1914C19.1237 10.1055 19.1523 9.99805 19.1523 9.86914C19.1523 9.74023 19.1237 9.60417 19.0664 9.46094C19.0234 9.41797 18.9948 9.375 18.9805 9.33203C18.9661 9.28906 18.9375 9.23893 18.8945 9.18164L14.3184 4.60547C14.1322 4.41927 13.9173 4.32617 13.6738 4.32617C13.4303 4.32617 13.2155 4.41927 13.0293 4.60547C12.8431 4.79167 12.75 5.00651 12.75 5.25C12.75 5.49349 12.8431 5.70833 13.0293 5.89453L16.0586 8.92383H7.25C6.97786 8.92383 6.75586 9.00977 6.58398 9.18164C6.41211 9.33919 6.32617 9.55404 6.32617 9.82617C6.32617 10.1126 6.41211 10.3418 6.58398 10.5137C6.75586 10.6712 6.97786 10.75 7.25 10.75H16.0586L13.0293 13.7793C12.8431 13.9655 12.75 14.1803 12.75 14.4238C12.75 14.6673 12.8431 14.8822 13.0293 15.0684C13.1152 15.1543 13.2155 15.2188 13.3301 15.2617C13.459 15.3047 13.5736 15.3262 13.6738 15.3262C13.7598 15.3262 13.86 15.3047 13.9746 15.2617C14.1035 15.2188 14.2181 15.1543 14.3184 15.0684L18.8945 10.4707C18.9375 10.4277 18.9733 10.3848 19.002 10.3418C19.0449 10.2988 19.0664 10.2487 19.0664 10.1914Z" fill="url(#paint0_radial)"/>
</svg>
