<svg width="16" height="10" viewBox="0 0 16 10" fill="none" xmlns="http://www.w3.org/2000/svg">
<path d="M14.6286 5.17857C13.1972 7.38839 10.8869 8.92857 8.2 8.92857C5.51306 8.92857 3.20279 7.38839 1.77143 5.17857C2.56663 3.9481 3.6548 2.89342 4.9606 2.22377C4.62578 2.79297 4.45 3.44587 4.45 4.10714C4.45 6.17467 6.13248 7.85714 8.2 7.85714C10.2675 7.85714 11.95 6.17467 11.95 4.10714C11.95 3.44587 11.7742 2.79297 11.4394 2.22377C12.7452 2.89342 13.8334 3.9481 14.6286 5.17857ZM8.60179 1.96429C8.60179 2.18192 8.41763 2.36607 8.2 2.36607C7.24576 2.36607 6.45893 3.1529 6.45893 4.10714C6.45893 4.32478 6.27478 4.50893 6.05714 4.50893C5.83951 4.50893 5.65536 4.32478 5.65536 4.10714C5.65536 2.70926 6.80212 1.5625 8.2 1.5625C8.41763 1.5625 8.60179 1.74665 8.60179 1.96429ZM15.7 5.17857C15.7 4.96931 15.633 4.77679 15.5326 4.601C13.9924 2.0731 11.1715 0.357143 8.2 0.357143C5.22846 0.357143 2.40759 2.0731 0.867411 4.601C0.766964 4.77679 0.7 4.96931 0.7 5.17857C0.7 5.38783 0.766964 5.58036 0.867411 5.75614C2.40759 8.28404 5.22846 10 8.2 10C11.1715 10 13.9924 8.29241 15.5326 5.75614C15.633 5.58036 15.7 5.38783 15.7 5.17857Z" fill="#B8C9D3"/>
</svg>
